<?xml version="1.0" encoding="utf-8"?>
<!-- Generator: Adobe Illustrator 22.0.1, SVG Export Plug-In . SVG Version: 6.00 Build 0)  -->
<svg version="1.1" id="Calque_1" xmlns="http://www.w3.org/2000/svg" xmlns:xlink="http://www.w3.org/1999/xlink" x="0px" y="0px"
	 viewBox="0 0 1024 1024" style="enable-background:new 0 0 1024 1024;" xml:space="preserve">
<style type="text/css">
	.st0{fill:#3C3B3B;}
</style>
<title></title>
<g id="icomoon-ignore">
</g>
<path class="st0" d="M979.3,161.7V361c0,30.3-20.4,56.9-49.6,64.8c-3.8,1-7.7,1.5-11.6,1.5c0,0,0,0,0,0L479.8,427v48.9
	c32.9,4.3,58.5,32.4,58.5,66.5v426.2c0,20.6-12.6,55.4-59.7,55.4l-7.4-0.1l-78.8,0.1c-47.1,0-59.7-34.8-59.7-55.4V542.4
	c0-34.1,25.5-62.2,58.5-66.5v-71.3c0-30.3,20.4-56.9,49.7-64.8c3.8-1,7.6-1.5,11.5-1.5c0,0,0,0,0,0l438.2,0.4V183.3h-61.8v27.5
	c0,37-30.1,67.1-67.1,67.1H111.9c-37,0-67.1-30.1-67.1-67.1V67.1c0-37,30.1-67.1,67.1-67.1h649.8c37,0,67.1,30.1,67.1,67.1v27.5
	h83.4C949.2,94.6,979.3,124.7,979.3,161.7L979.3,161.7z"/>
</svg>
