<?xml version="1.0" encoding="utf-8"?>
<!-- Generator: Adobe Illustrator 22.0.1, SVG Export Plug-In . SVG Version: 6.00 Build 0)  -->
<svg version="1.1" id="Calque_1" xmlns="http://www.w3.org/2000/svg" xmlns:xlink="http://www.w3.org/1999/xlink" x="0px" y="0px"
	 viewBox="0 0 1024 1024" style="enable-background:new 0 0 1024 1024;" xml:space="preserve">
<style type="text/css">
	.st0{fill:#3C3B3B;}
</style>
<title></title>
<g id="icomoon-ignore">
</g>
<path class="st0" d="M388.9,1024h250.6l-62.2-771.7H434.4L388.9,1024z M701.1,0.3L564.6,0.2v23.1H439.9V0.2L129.1,0l0.7,225.4h161.4
	c0,0,32.3-27.2,76.5-27.2s68,18.7,68,18.7l-1.1,19.9h141.7l-1-12.3c0,0,18.8-20.3,72.1-20.3c207.3,0,145.7,48.8,228.1,114.6
	C919.8,363.4,899.1,0.3,701.1,0.3L701.1,0.3z M434.4,236.8L434.4,236.8z"/>
</svg>
