<?xml version="1.0" encoding="utf-8"?>
<!-- Generator: Adobe Illustrator 22.0.1, SVG Export Plug-In . SVG Version: 6.00 Build 0)  -->
<svg version="1.1" id="Calque_1" xmlns="http://www.w3.org/2000/svg" xmlns:xlink="http://www.w3.org/1999/xlink" x="0px" y="0px"
	 viewBox="0 0 1024 1024" style="enable-background:new 0 0 1024 1024;" xml:space="preserve">
<style type="text/css">
	.st0{fill:#3C3B3B;}
</style>
<title></title>
<g id="icomoon-ignore">
</g>
<path class="st0" d="M668,558.6c-4.6-4.8-10.2-8.8-16.4-12c-31.8-16.4-64.8-29.8-97.8-42.6c-2.6-1-5.4-2.8-6.4-5
	c-2.8-6-4.6-12.4-6.6-18.6c-1.2-4-2.2-7.8-6.6-9.8c-1.2-0.6-2.2-2.8-2.2-4.4c0.2-14.6-3-29.8,7.6-42.6c0.4-0.4,0.6-1,0.6-1.4
	c6-12.8,6.8-27.4,15.2-39.4c0.2-0.4,0.2-0.6,0.4-1c1-9.2,1.8-18.2,2.8-27.2c0-1-0.8-3-1.8-3.4c-4.4-1.6-4.2-5.2-4.2-8.8
	c0-17.6,0-20.4,0-38c0-10.4-3-19.6-10.8-26.4c-8.8-8-18-15.6-27.2-23.4c-4.4-3.8-4.8-6.6-0.6-10.8c1.8-1.8,4-3,6.2-4.6
	c-0.6-0.6-0.8-1.4-1.4-2c-2.8,0-5.4-0.4-8.2,0c-10.2,1.6-20.2,3-30,5.4c-18.8,4.4-37.4,10.4-52.6,23.2c-10.6,8.6-18.8,18.6-19.8,33
	c-0.6,7.4-0.6,15-0.6,22.4c-0.2,12.2,0.2,9.2-0.2,21.4c0,2-1.2,5.2-2.6,5.8c-5,1.6-5,4.8-4.4,8.8c0.6,2.8,0.2,5.8,0.6,8.4
	c1.6,7.6,3.6,15.2,5.8,22.8c1.6,5.6,4.8,10.8,5.8,16.4c1.6,11.4,6,21.2,13.6,29.8c1.2,1.4,2.2,3.8,2,5.6c-0.6,8.6-1.6,17.4-2.8,26.2
	c-0.2,1.6-2,4.2-3.4,4.6c-5.8,1.2-6.6,5.6-8.2,10.2c-1.8,6-3.8,11.8-6.2,17.6c-0.6,1.8-2.6,3.8-4.2,4.4c-10.4,4.4-20.8,8.6-31.2,13
	c-11,4.6-22.2,9.2-33,14.2c-11.2,5.2-22,11.4-32.8,17.2C300,551,294,555,289,559.4L273.8,624c54.6,0,379.4,0,409.8,0L668,558.6
	L668,558.6z M760.6,697.6c49.6-62.2,79.6-152.2,79.6-238.8c0-200-162-358.2-358.2-358.2C286,100.8,124,259,124,458.8
	S286,817,482.2,817c83.4,0,158.2-30.6,218.8-79.6l218.8,238.8l59.6-59.6L760.6,697.6L760.6,697.6z M482.2,737.4
	c-152.4,0-278.6-123.2-278.6-278.6s126.2-278.4,278.6-278.4S760.8,303.6,760.8,459S634.6,737.4,482.2,737.4L482.2,737.4z"/>
</svg>
