<?xml version="1.0" encoding="utf-8"?>
<!-- Generator: Adobe Illustrator 22.0.1, SVG Export Plug-In . SVG Version: 6.00 Build 0)  -->
<svg version="1.1" id="Calque_1" xmlns="http://www.w3.org/2000/svg" xmlns:xlink="http://www.w3.org/1999/xlink" x="0px" y="0px"
	 viewBox="0 0 1024 1024" style="enable-background:new 0 0 1024 1024;" xml:space="preserve">
<style type="text/css">
	.st0{fill:#3C3B3B;}
</style>
<title></title>
<g id="icomoon-ignore">
</g>
<path class="st0" d="M484.8,709.6c-5.4-5.6-12-10.4-19.4-14.2c-37.4-19.2-76.2-35.2-115.2-50.2c-3-1.2-6.4-3.4-7.6-6
	c-3.2-7-5.4-14.6-7.8-22c-1.4-4.8-2.6-9.2-7.8-11.6c-1.4-0.6-2.6-3.4-2.6-5.2c0.2-17.2-3.6-35.2,9-50.2c0.4-0.4,0.6-1.2,0.8-1.6
	c7-15,8-32.2,17.8-46.4c0.2-0.4,0.2-0.8,0.4-1.2c1.2-10.8,2.2-21.4,3.2-32c0-1.2-1-3.6-2.2-4c-5.2-1.8-5-6.2-5-10.4
	c0-20.8,0-24,0-44.8c0-12.2-3.6-23-12.8-31.2c-10.4-9.4-21.2-18.4-32-27.6c-5.2-4.4-5.6-7.8-0.8-12.6c2.2-2.2,4.8-3.6,7.4-5.4
	c-0.6-0.8-1-1.6-1.6-2.4c-3.2,0-6.4-0.4-9.6,0c-12,2-23.8,3.6-35.4,6.4c-22.2,5.2-44,12.2-62,27.2c-12.4,10.2-22.2,22-23.4,38.8
	c-0.6,8.8-0.6,17.6-0.6,26.4c-0.2,14.4,0.2,10.8-0.2,25.2c0,2.4-1.4,6.2-3,6.8c-5.8,1.8-6,5.6-5.2,10.4c0.6,3.4,0.2,6.8,0.8,10
	c2,9,4.2,18,6.8,26.8c2,6.6,5.6,12.8,6.8,19.4c2,13.4,7,25,16,35c1.4,1.6,2.6,4.4,2.4,6.6c-0.8,10.2-1.8,20.6-3.2,30.8
	c-0.2,2-2.4,5-4,5.4c-6.8,1.4-7.8,6.6-9.6,12c-2.2,7-4.4,14-7.2,20.8c-0.8,2.2-3,4.4-5,5.2c-12.2,5.2-24.6,10.2-36.8,15.2
	c-13,5.4-26.2,10.8-38.8,16.8C84.2,682,71.6,689.2,58.8,696c-7.6,4-14.6,8.6-20.6,14l-17.8,76c64.2,0,446.6,0,482.6,0L484.8,709.6
	L484.8,709.6z M719.6,186.6c-7-3.2-15.4-0.2-18.4,6.8L685.6,227c-26.8-57.2-84.6-95.2-149.4-95.6C460.4,131,394,182,374.6,255.4
	c-2,7.4,2.4,15,10,17l0.8,0.2c7.2,1.4,14.4-3,16.2-10C417.8,201.4,473,159,536,159.2c54.4,0.2,102.6,32.4,124.6,80.4l-37.4-17.4
	c-7-3.2-15.4-0.2-18.6,6.8s-0.2,15.2,6.8,18.4l66,30.6c10.6,4.2,17.4-3.2,18.6-6.8l30.6-66.2C729.6,198.2,726.6,189.8,719.6,186.6
	L719.6,186.6L719.6,186.6z M966.8,512.4L966.8,512.4c-23.2,40.8-68.6,63.6-115.2,58c-2.8-0.4-5.6,1-7,3.4l-17.4,30.6
	c-1,1.6-1.2,3.6-0.6,5.4l8.2,29.4l-29.6,8c-1.8,0.4-3.4,1.6-4.2,3.4l-6,10.4c-1,1.6-1.2,3.6-0.6,5.4l8.2,29.6l-0.6,0.2l-6.6,2.4
	l-22.6,6.2c-1.8,0.6-3.4,1.6-4.2,3.4l-6,10.4c-1,1.6-1.2,3.6-0.6,5.4l8.2,29.4l-29.6,8c-1.8,0.4-3.4,1.6-4.2,3.2l-0.8,1.4
	c-11,19.4-35.8,26.2-55.4,15.2c-19.4-11-26.2-35.8-15.2-55.4l109.4-192c1.4-2.4,1.2-5.6-0.6-7.8c-28.8-37.2-32.2-87.8-9-128.6
	c31.8-55.8,103-75.2,158.6-43.4c26.8,15,46.2,40,54.4,70S982,485.4,966.8,512.4L966.8,512.4L966.8,512.4z M814.8,597.2l17.4-30.6
	c4.2-7.4,12.4-11.6,21-10.6c41,5,80.8-15,101.2-50.8c13.4-23.6,17-51.2,9.8-77.6s-24.2-48.2-48-61.8C867.2,338,804.6,355,776.8,404
	c-20.4,36-17.4,80.4,7.8,113c5.2,6.8,5.8,16,1.6,23.4l-109.4,192c-7.2,12.6-2.8,28.8,9.8,36s28.8,2.8,36-9.8l0.8-1.4
	c2.8-5,7.4-8.4,12.8-10l15.8-4.4l-4.4-15.8c-1.4-5.4-0.8-11.2,2-16l6-10.4c2.8-5,7.4-8.4,12.8-10l16.4-4.4l-4.4-16.4
	c-1.4-5.4-0.8-11.2,2-16l6-10.4c2.8-4.8,7.4-8.4,12.8-10L817,629l-4.4-15.8C811.4,608,812.2,602.2,814.8,597.2L814.8,597.2
	L814.8,597.2z M919.4,430.8c-9.4,16.6-30.8,22.4-47.4,13s-22.4-30.8-13-47.4s30.8-22.4,47.4-13S928.8,414,919.4,430.8L919.4,430.8z
	 M871.2,403.4c-5.6,10-2.2,22.6,7.8,28.2s22.6,2.2,28.2-7.8c5.6-9.8,2.2-22.6-7.8-28.2S876.8,393.4,871.2,403.4L871.2,403.4z"/>
</svg>
