<?xml version="1.0" encoding="utf-8"?>
<!-- Generator: Adobe Illustrator 22.0.1, SVG Export Plug-In . SVG Version: 6.00 Build 0)  -->
<svg version="1.1" id="Calque_1" xmlns="http://www.w3.org/2000/svg" xmlns:xlink="http://www.w3.org/1999/xlink" x="0px" y="0px"
	 viewBox="0 0 1024 1024" style="enable-background:new 0 0 1024 1024;" xml:space="preserve">
<style type="text/css">
	.st0{fill:#3C3B3B;}
</style>
<title></title>
<g id="icomoon-ignore">
</g>
<path class="st0" d="M756,64h-45.9V21c0-11.6-9.4-21-21-21H334.9c-11.6,0-21,9.4-21,21v43H268c-11.6,0-21,9.4-21,21V1003
	c0,11.6,9.4,21,21,21H756c11.6,0,21-9.4,21-21V85.1C777.1,73.4,767.7,64,756,64L756,64z M544.8,981.9h-65.7V837.1h65.7V981.9z
	 M735,981.9H586.9V816.1c0-11.6-9.4-21-21-21H458.1c-11.6,0-21,9.4-21,21v165.8H289V106.1h446L735,981.9L735,981.9z M668.1,42.1V64
	H355.9V42.1C355.9,42.1,668.1,42.1,668.1,42.1z"/>
<path class="st0" d="M386.6,204.9c-11.6,0-21,9.4-21,21v30.2c0,11.6,9.4,21,21,21s21-9.4,21-21v-30.2
	C407.7,214.3,398.3,204.9,386.6,204.9z"/>
<path class="st0" d="M470.2,204.9c-11.6,0-21,9.4-21,21v30.2c0,11.6,9.4,21,21,21s21-9.4,21-21v-30.2
	C491.3,214.3,481.8,204.9,470.2,204.9z"/>
<path class="st0" d="M553.8,204.9c-11.6,0-21,9.4-21,21v30.2c0,11.6,9.4,21,21,21s21-9.4,21-21v-30.2
	C574.8,214.3,565.4,204.9,553.8,204.9z"/>
<path class="st0" d="M637.4,204.9c-11.6,0-21,9.4-21,21v30.2c0,11.6,9.4,21,21,21s21-9.4,21-21v-30.2
	C658.4,214.3,649,204.9,637.4,204.9z"/>
<path class="st0" d="M386.6,308.8c-11.6,0-21,9.4-21,21v30.2c0,11.6,9.4,21,21,21s21-9.4,21-21v-30.2
	C407.7,318.2,398.3,308.8,386.6,308.8z"/>
<path class="st0" d="M470.2,308.8c-11.6,0-21,9.4-21,21v30.2c0,11.6,9.4,21,21,21s21-9.4,21-21v-30.2
	C491.3,318.2,481.8,308.8,470.2,308.8z"/>
<path class="st0" d="M553.8,308.8c-11.6,0-21,9.4-21,21v30.2c0,11.6,9.4,21,21,21s21-9.4,21-21v-30.2
	C574.8,318.2,565.4,308.8,553.8,308.8z"/>
<path class="st0" d="M637.4,308.8c-11.6,0-21,9.4-21,21v30.2c0,11.6,9.4,21,21,21s21-9.4,21-21v-30.2
	C658.4,318.2,649,308.8,637.4,308.8z"/>
<path class="st0" d="M386.6,412.8c-11.6,0-21,9.4-21,21V464c0,11.6,9.4,21,21,21s21-9.4,21-21v-30.2
	C407.7,422.2,398.3,412.8,386.6,412.8z"/>
<path class="st0" d="M470.2,412.8c-11.6,0-21,9.4-21,21V464c0,11.6,9.4,21,21,21s21-9.4,21-21v-30.2
	C491.3,422.2,481.8,412.8,470.2,412.8z"/>
<path class="st0" d="M553.8,412.8c-11.6,0-21,9.4-21,21V464c0,11.6,9.4,21,21,21s21-9.4,21-21v-30.2
	C574.8,422.2,565.4,412.8,553.8,412.8z"/>
<path class="st0" d="M637.4,412.8c-11.6,0-21,9.4-21,21V464c0,11.6,9.4,21,21,21s21-9.4,21-21v-30.2
	C658.4,422.2,649,412.8,637.4,412.8z"/>
<path class="st0" d="M386.6,516.8c-11.6,0-21,9.4-21,21V568c0,11.6,9.4,21,21,21s21-9.4,21-21v-30.2
	C407.7,526.2,398.3,516.8,386.6,516.8z"/>
<path class="st0" d="M470.2,516.8c-11.6,0-21,9.4-21,21V568c0,11.6,9.4,21,21,21s21-9.4,21-21v-30.2
	C491.3,526.2,481.8,516.8,470.2,516.8z"/>
<path class="st0" d="M553.8,516.8c-11.6,0-21,9.4-21,21V568c0,11.6,9.4,21,21,21s21-9.4,21-21v-30.2
	C574.8,526.2,565.4,516.8,553.8,516.8z"/>
<path class="st0" d="M637.4,516.8c-11.6,0-21,9.4-21,21V568c0,11.6,9.4,21,21,21s21-9.4,21-21v-30.2
	C658.4,526.2,649,516.8,637.4,516.8z"/>
<path class="st0" d="M386.6,620.7c-11.6,0-21,9.4-21,21V672c0,11.6,9.4,21,21,21s21-9.4,21-21v-30.2
	C407.7,630.1,398.3,620.7,386.6,620.7z"/>
<path class="st0" d="M470.2,620.7c-11.6,0-21,9.4-21,21V672c0,11.6,9.4,21,21,21s21-9.4,21-21v-30.2
	C491.3,630.1,481.8,620.7,470.2,620.7z"/>
<path class="st0" d="M553.8,620.7c-11.6,0-21,9.4-21,21V672c0,11.6,9.4,21,21,21s21-9.4,21-21v-30.2
	C574.8,630.1,565.4,620.7,553.8,620.7z"/>
<path class="st0" d="M637.4,620.7c-11.6,0-21,9.4-21,21V672c0,11.6,9.4,21,21,21s21-9.4,21-21v-30.2
	C658.4,630.1,649,620.7,637.4,620.7z"/>
</svg>
