<?xml version="1.0" encoding="utf-8"?>
<!-- Generator: Adobe Illustrator 22.0.1, SVG Export Plug-In . SVG Version: 6.00 Build 0)  -->
<svg version="1.1" id="VERT" xmlns="http://www.w3.org/2000/svg" xmlns:xlink="http://www.w3.org/1999/xlink" x="0px" y="0px"
	 viewBox="0 0 189.5 31" style="enable-background:new 0 0 189.5 31;" xml:space="preserve">
<style type="text/css">
	.st0{fill:url(#SVGID_1_);}
	.st1{fill:url(#SVGID_2_);}
	.st2{fill:url(#SVGID_3_);}
	.st3{fill:url(#SVGID_4_);}
	.st4{fill:url(#SVGID_5_);}
	.st5{fill:url(#SVGID_6_);}
	.st6{fill:url(#SVGID_7_);}
	.st7{fill:url(#SVGID_8_);}
	.st8{fill:url(#SVGID_9_);}
	.st9{fill:url(#SVGID_10_);}
	.st10{opacity:0.38;fill:#FFFFFF;enable-background:new    ;}
	.st11{opacity:0.46;fill:url(#SVGID_11_);enable-background:new    ;}
	.st12{opacity:0.53;fill:url(#SVGID_12_);enable-background:new    ;}
	.st13{opacity:0.46;fill:url(#SVGID_13_);enable-background:new    ;}
	.st14{opacity:0.46;fill:url(#SVGID_14_);enable-background:new    ;}
	.st15{opacity:0.46;fill:url(#SVGID_15_);enable-background:new    ;}
	.st16{opacity:0.46;fill:url(#SVGID_16_);enable-background:new    ;}
	.st17{fill:#94A71B;}
	.st18{fill:url(#SVGID_17_);}
	.st19{opacity:0.3;fill:#FFFFFF;enable-background:new    ;}
	.st20{fill:url(#SVGID_18_);}
	.st21{fill:#FFFFFF;}
</style>
<g>
	<g id="fumée_verte_19_">
		
			<linearGradient id="SVGID_1_" gradientUnits="userSpaceOnUse" x1="-226.5081" y1="-351.7127" x2="-226.4319" y2="-353.8211" gradientTransform="matrix(-0.9864 -8.114459e-02 -9.143384e-02 -0.4517 -223.7733 -169.8554)">
			<stop  offset="0" style="stop-color:#808080"/>
			<stop  offset="1.927190e-02" style="stop-color:#737373"/>
			<stop  offset="7.058344e-02" style="stop-color:#575757"/>
			<stop  offset="0.1222" style="stop-color:#434343"/>
			<stop  offset="0.1737" style="stop-color:#373737"/>
			<stop  offset="0.2253" style="stop-color:#333333"/>
			<stop  offset="0.4196" style="stop-color:#282624"/>
			<stop  offset="0.656" style="stop-color:#201E1B"/>
			<stop  offset="0.9746" style="stop-color:#1E1B18"/>
			<stop  offset="1" style="stop-color:#1C1A17"/>
		</linearGradient>
		<polygon class="st0" points="30.6,9.9 33,10.3 33.4,7.9 30.9,7.5 		"/>
		
			<radialGradient id="SVGID_2_" cx="-761.1537" cy="-371.4924" r="9.9515" gradientTransform="matrix(-0.2681 -4.082194e-02 4.082194e-02 -0.2681 -153.224 -125.635)" gradientUnits="userSpaceOnUse">
			<stop  offset="0" style="stop-color:#808080"/>
			<stop  offset="1.927190e-02" style="stop-color:#737373"/>
			<stop  offset="7.058344e-02" style="stop-color:#575757"/>
			<stop  offset="0.1222" style="stop-color:#434343"/>
			<stop  offset="0.1737" style="stop-color:#373737"/>
			<stop  offset="0.2253" style="stop-color:#333333"/>
			<stop  offset="0.4343" style="stop-color:#262523"/>
			<stop  offset="0.6752" style="stop-color:#1E1D1A"/>
			<stop  offset="1" style="stop-color:#1C1A17"/>
		</radialGradient>
		<polygon class="st1" points="34.2,7.6 36.1,7.9 36.4,5.9 34.5,5.6 		"/>
		
			<linearGradient id="SVGID_3_" gradientUnits="userSpaceOnUse" x1="-326.8898" y1="67.4425" x2="-326.8898" y2="63.4986" gradientTransform="matrix(-0.9886 -0.1505 0.1505 -0.9886 -299.5273 20.4693)">
			<stop  offset="0" style="stop-color:#808080"/>
			<stop  offset="1.927190e-02" style="stop-color:#737373"/>
			<stop  offset="7.058344e-02" style="stop-color:#575757"/>
			<stop  offset="0.1222" style="stop-color:#434343"/>
			<stop  offset="0.1737" style="stop-color:#373737"/>
			<stop  offset="0.2253" style="stop-color:#333333"/>
			<stop  offset="0.4343" style="stop-color:#262523"/>
			<stop  offset="0.6752" style="stop-color:#1E1D1A"/>
			<stop  offset="1" style="stop-color:#1C1A17"/>
		</linearGradient>
		<polygon class="st2" points="32.4,6 34.2,6.3 34.5,4.4 32.7,4.1 		"/>
		
			<linearGradient id="SVGID_4_" gradientUnits="userSpaceOnUse" x1="-324.0765" y1="66.5055" x2="-324.0765" y2="63.3374" gradientTransform="matrix(-0.9886 -0.1505 0.1505 -0.9886 -299.5273 20.4693)">
			<stop  offset="0" style="stop-color:#808080"/>
			<stop  offset="1.927190e-02" style="stop-color:#737373"/>
			<stop  offset="7.058344e-02" style="stop-color:#575757"/>
			<stop  offset="0.1222" style="stop-color:#434343"/>
			<stop  offset="0.1737" style="stop-color:#373737"/>
			<stop  offset="0.2253" style="stop-color:#333333"/>
			<stop  offset="0.4343" style="stop-color:#262523"/>
			<stop  offset="0.6752" style="stop-color:#1E1D1A"/>
			<stop  offset="1" style="stop-color:#1C1A17"/>
		</linearGradient>
		<polygon class="st3" points="29.9,4.8 31.4,5 31.6,3.5 30.2,3.3 		"/>
		
			<radialGradient id="SVGID_5_" cx="-767.3357" cy="-370.3661" r="3.3936" gradientTransform="matrix(-0.2681 -4.082194e-02 4.082194e-02 -0.2681 -153.224 -125.635)" gradientUnits="userSpaceOnUse">
			<stop  offset="0" style="stop-color:#808080"/>
			<stop  offset="1.927190e-02" style="stop-color:#737373"/>
			<stop  offset="7.058344e-02" style="stop-color:#575757"/>
			<stop  offset="0.1222" style="stop-color:#434343"/>
			<stop  offset="0.1737" style="stop-color:#373737"/>
			<stop  offset="0.2253" style="stop-color:#333333"/>
			<stop  offset="0.4343" style="stop-color:#262523"/>
			<stop  offset="0.6752" style="stop-color:#1E1D1A"/>
			<stop  offset="1" style="stop-color:#1C1A17"/>
		</radialGradient>
		<polygon class="st4" points="36,5 37,5.2 37.2,4.1 36.1,4 		"/>
		
			<radialGradient id="SVGID_6_" cx="-791.3402" cy="-378.2312" r="7.4616" gradientTransform="matrix(-0.2681 -4.082194e-02 4.082194e-02 -0.2681 -153.224 -125.635)" gradientUnits="userSpaceOnUse">
			<stop  offset="0" style="stop-color:#808080"/>
			<stop  offset="1.927190e-02" style="stop-color:#737373"/>
			<stop  offset="7.058344e-02" style="stop-color:#575757"/>
			<stop  offset="0.1222" style="stop-color:#434343"/>
			<stop  offset="0.1737" style="stop-color:#373737"/>
			<stop  offset="0.2253" style="stop-color:#333333"/>
			<stop  offset="0.4343" style="stop-color:#262523"/>
			<stop  offset="0.6752" style="stop-color:#1E1D1A"/>
			<stop  offset="1" style="stop-color:#1C1A17"/>
		</radialGradient>
		<polygon class="st5" points="42,7.3 42.5,7.4 42.6,6.9 42,6.8 		"/>
		
			<radialGradient id="SVGID_7_" cx="-1093.7853" cy="-767.1415" r="10.7463" gradientTransform="matrix(-0.1857 -2.827734e-02 2.550356e-02 -0.1676 -143.7711 -153.8772)" gradientUnits="userSpaceOnUse">
			<stop  offset="0" style="stop-color:#808080"/>
			<stop  offset="1.927190e-02" style="stop-color:#737373"/>
			<stop  offset="7.058344e-02" style="stop-color:#575757"/>
			<stop  offset="0.1222" style="stop-color:#434343"/>
			<stop  offset="0.1737" style="stop-color:#373737"/>
			<stop  offset="0.2253" style="stop-color:#333333"/>
			<stop  offset="0.4343" style="stop-color:#262523"/>
			<stop  offset="0.6752" style="stop-color:#1E1D1A"/>
			<stop  offset="1" style="stop-color:#1C1A17"/>
		</radialGradient>
		<polygon class="st6" points="38.6,5.2 39.6,5.4 39.7,4.4 38.8,4.3 		"/>
		
			<radialGradient id="SVGID_8_" cx="-1007.7125" cy="-676.2859" r="10.7415" gradientTransform="matrix(-0.2025 -3.084374e-02 2.775774e-02 -0.1825 -144.6628 -151.6081)" gradientUnits="userSpaceOnUse">
			<stop  offset="0" style="stop-color:#808080"/>
			<stop  offset="1.927190e-02" style="stop-color:#737373"/>
			<stop  offset="7.058344e-02" style="stop-color:#575757"/>
			<stop  offset="0.1222" style="stop-color:#434343"/>
			<stop  offset="0.1737" style="stop-color:#373737"/>
			<stop  offset="0.2253" style="stop-color:#333333"/>
			<stop  offset="0.4343" style="stop-color:#262523"/>
			<stop  offset="0.6752" style="stop-color:#1E1D1A"/>
			<stop  offset="1" style="stop-color:#1C1A17"/>
		</radialGradient>
		<polygon class="st7" points="39.4,2.5 40.4,2.6 40.5,1.6 39.5,1.5 		"/>
	</g>
	<g id="maison_19_">
		
			<linearGradient id="SVGID_9_" gradientUnits="userSpaceOnUse" x1="1.2244" y1="21.3067" x2="1.2244" y2="50.4001" gradientTransform="matrix(0.9938 0.1104 0.1104 -0.9938 18.3491 51.6178)">
			<stop  offset="0" style="stop-color:#999593"/>
			<stop  offset="1" style="stop-color:#999999"/>
		</linearGradient>
		<path class="st8" d="M39.8,16c3.5,3.5,5.4,4.6,2.6,4.8c-2.6,0.3-10-0.3-19.6,2c-9.6,1.9-17.5,6.1-20.2,7c-2.9,1.1-0.6-1,3.9-7
			C11,16.9,16.6,10.4,19.9,6.9c3.5-3.8,4.7-4.7,5.1-4.5c0.5,0.4,1.4,1.6,4.2,4.1C31.8,8.9,36.2,12.6,39.8,16z"/>
		
			<linearGradient id="SVGID_10_" gradientUnits="userSpaceOnUse" x1="1.1836" y1="23.4884" x2="1.1836" y2="51.0019" gradientTransform="matrix(0.9938 0.1104 0.1104 -0.9938 18.3491 51.6178)">
			<stop  offset="0" style="stop-color:#808080"/>
			<stop  offset="1.927190e-02" style="stop-color:#737373"/>
			<stop  offset="7.058344e-02" style="stop-color:#575757"/>
			<stop  offset="0.1222" style="stop-color:#434343"/>
			<stop  offset="0.1737" style="stop-color:#373737"/>
			<stop  offset="0.2253" style="stop-color:#333333"/>
			<stop  offset="0.4343" style="stop-color:#262523"/>
			<stop  offset="0.6752" style="stop-color:#1E1D1A"/>
			<stop  offset="1" style="stop-color:#1C1A17"/>
		</linearGradient>
		<path class="st9" d="M39.1,15.5c3.2,3.2,4.8,4.3,2,4.6c-2.5,0.4-9.5,0-18.4,2.1C13.9,23.9,6.5,27.6,4,28.4
			c-2.8,0.9-0.8-1.1,3.3-6.5c4.2-5.3,9.3-11.2,12.4-14.6C23,3.7,24.3,2.8,25,2.9c0.7,0.3,1.7,1.5,4.4,3.8
			C31.8,9,35.9,12.4,39.1,15.5z"/>
		<path class="st10" d="M22.6,21.7C14.6,23.5,9,26,6.1,27.2c-3,1.3-3.3,1.1-3,0.4c-0.5,0.9-0.7,1.4,2.2,0.3c2.7-1,8.6-3.7,17.3-5.7
			c8.7-1.9,14.1-1.8,16.8-2.1c2.8-0.1,3-0.5,3-0.8c-0.4,0.3-1.1,0.5-4,0.5C35.6,20.1,30.6,20,22.6,21.7z"/>
		
			<linearGradient id="SVGID_11_" gradientUnits="userSpaceOnUse" x1="1.2865" y1="47.5222" x2="1.2865" y2="31.0021" gradientTransform="matrix(0.9938 0.1104 0.1104 -0.9938 18.3491 51.6178)">
			<stop  offset="0" style="stop-color:#FFFFFF"/>
			<stop  offset="9.174910e-02" style="stop-color:#F1F1F1"/>
			<stop  offset="0.265" style="stop-color:#CCCCCC"/>
			<stop  offset="0.5012" style="stop-color:#919191"/>
			<stop  offset="0.7881" style="stop-color:#404040"/>
			<stop  offset="1" style="stop-color:#000000"/>
		</linearGradient>
		<path class="st11" d="M34.6,11.6c-2.5-2.3-5-4.3-6.6-5.8c-1.7-1.4-2.4-2.3-3.1-2.4C24.2,3.3,23.3,4,21.3,6c-1.9,1.9-5,5.2-8.1,9
			c0.7,0,0.5-0.5,4.9-1.9C21.9,12,30.5,9.8,34.6,11.6z"/>
		
			<linearGradient id="SVGID_12_" gradientUnits="userSpaceOnUse" x1="1.0325" y1="48.5605" x2="1.0325" y2="12.291" gradientTransform="matrix(0.9938 0.1104 0.1104 -0.9938 18.3491 51.6178)">
			<stop  offset="0" style="stop-color:#CCCCCC"/>
			<stop  offset="0.2637" style="stop-color:#1A1A1A"/>
			<stop  offset="0.3581" style="stop-color:#202020"/>
			<stop  offset="0.4857" style="stop-color:#313131"/>
			<stop  offset="0.6323" style="stop-color:#4D4D4D"/>
			<stop  offset="0.793" style="stop-color:#757575"/>
			<stop  offset="0.9635" style="stop-color:#A7A7A7"/>
			<stop  offset="1" style="stop-color:#B3B3B3"/>
		</linearGradient>
		<path class="st12" d="M32,9.3c-4.1-3.5-6.1-5.6-7.1-5.9s-3.3,2-9,8.4c2-2.7,6.3-6.3,7.7-7.5C25.7,3,24.9,4.1,32,9.3z"/>
	</g>
	<g id="fenetre_19_">
		
			<linearGradient id="SVGID_13_" gradientUnits="userSpaceOnUse" x1="51.031" y1="5.4344" x2="48.0936" y2="-0.8471" gradientTransform="matrix(1 -7.154753e-03 -7.154753e-03 -1 -21.4959 17.8251)">
			<stop  offset="0" style="stop-color:#FFFFFF"/>
			<stop  offset="9.174910e-02" style="stop-color:#F1F1F1"/>
			<stop  offset="0.265" style="stop-color:#CCCCCC"/>
			<stop  offset="0.5012" style="stop-color:#919191"/>
			<stop  offset="0.7881" style="stop-color:#404040"/>
			<stop  offset="1" style="stop-color:#000000"/>
		</linearGradient>
		<path class="st13" d="M29.6,15.7c-0.9,0.2-1.7,0.4-2.4,0.6c-0.2-0.8-0.3-1.6-0.4-2.3c0.6-0.3,1.5-0.5,2.3-0.7
			C29.3,14,29.4,14.8,29.6,15.7z"/>
		
			<linearGradient id="SVGID_14_" gradientUnits="userSpaceOnUse" x1="53.5724" y1="4.2461" x2="50.6352" y2="-2.0348" gradientTransform="matrix(1 -7.154753e-03 -7.154753e-03 -1 -21.4959 17.8251)">
			<stop  offset="0" style="stop-color:#FFFFFF"/>
			<stop  offset="9.174910e-02" style="stop-color:#F1F1F1"/>
			<stop  offset="0.265" style="stop-color:#CCCCCC"/>
			<stop  offset="0.5012" style="stop-color:#919191"/>
			<stop  offset="0.7881" style="stop-color:#404040"/>
			<stop  offset="1" style="stop-color:#000000"/>
		</linearGradient>
		<path class="st14" d="M33.2,14.9c-0.7,0.1-1.5,0.3-2.4,0.5c-0.2-0.9-0.4-1.7-0.6-2.4c0.8-0.2,1.6-0.3,2.3-0.4
			C32.8,13.3,33,14.1,33.2,14.9z"/>
		
			<linearGradient id="SVGID_15_" gradientUnits="userSpaceOnUse" x1="55.4713" y1="3.3585" x2="52.5334" y2="-2.9237" gradientTransform="matrix(1 -7.154753e-03 -7.154753e-03 -1 -21.4959 17.8251)">
			<stop  offset="0" style="stop-color:#FFFFFF"/>
			<stop  offset="9.174910e-02" style="stop-color:#F1F1F1"/>
			<stop  offset="0.265" style="stop-color:#CCCCCC"/>
			<stop  offset="0.5012" style="stop-color:#919191"/>
			<stop  offset="0.7881" style="stop-color:#404040"/>
			<stop  offset="1" style="stop-color:#000000"/>
		</linearGradient>
		<path class="st15" d="M33.8,18.3c-0.6,0.3-1.5,0.5-2.3,0.7c-0.1-0.7-0.3-1.5-0.5-2.4c0.9-0.2,1.7-0.4,2.4-0.6
			C33.6,16.8,33.7,17.5,33.8,18.3z"/>
		
			<linearGradient id="SVGID_16_" gradientUnits="userSpaceOnUse" x1="52.9743" y1="4.5258" x2="50.0367" y2="-1.7559" gradientTransform="matrix(1 -7.154753e-03 -7.154753e-03 -1 -21.4959 17.8251)">
			<stop  offset="0" style="stop-color:#FFFFFF"/>
			<stop  offset="9.174910e-02" style="stop-color:#F1F1F1"/>
			<stop  offset="0.265" style="stop-color:#CCCCCC"/>
			<stop  offset="0.5012" style="stop-color:#919191"/>
			<stop  offset="0.7881" style="stop-color:#404040"/>
			<stop  offset="1" style="stop-color:#000000"/>
		</linearGradient>
		<path class="st16" d="M30.5,19.2c-0.8,0.2-1.6,0.3-2.3,0.4c-0.3-0.6-0.5-1.5-0.7-2.3c0.7-0.1,1.5-0.3,2.4-0.5
			C30.1,17.7,30.3,18.5,30.5,19.2z"/>
	</g>
	<g>
		<rect x="42.1" y="1.4" transform="matrix(0.1503 -0.9886 0.9886 0.1503 34.2981 43.7225)" class="st17" width="0.9" height="1"/>
		
			<rect x="40.8" y="3.6" transform="matrix(0.1503 -0.9886 0.9886 0.1503 31.0056 44.5545)" class="st17" width="1.2" height="1.2"/>
		
			<rect x="37.6" y="2.5" transform="matrix(0.1508 -0.9886 0.9886 0.1508 29.4051 40.4409)" class="st17" width="1.2" height="1.2"/>
		
			<rect x="34.3" y="2.5" transform="matrix(0.1504 -0.9886 0.9886 0.1504 26.5814 37.3685)" class="st17" width="1.4" height="1.5"/>
		
			<rect x="36.5" y="6.2" transform="matrix(0.1505 -0.9886 0.9886 0.1505 24.8611 42.8022)" class="st17" width="1.6" height="1.4"/>
	</g>
	<g id="bonhomme_vert_19_">
		<g>
			
				<linearGradient id="SVGID_17_" gradientUnits="userSpaceOnUse" x1="13.0922" y1="7.6506" x2="1.1477" y2="26.5449" gradientTransform="matrix(1 0 0 -1 0 32.4252)">
				<stop  offset="0" style="stop-color:#C5D42D"/>
				<stop  offset="1" style="stop-color:#15652E"/>
			</linearGradient>
			<path class="st18" d="M12.7,13.3c-2.1,0.7-6.8-0.5-8.8-3.8C1.9,6.3,2.2,4.1,2.1,6C2,8.8,3.5,15.1,4.5,19.4c1,4.5,0.7,8.6,0.7,9.8
				c-0.2,1.2,1.1-0.4,3.2-3.1s4.9-6.6,6.1-10.4c1.1-3.6,1.1-4.5,1-4.3C15.3,11.6,15,12.8,12.7,13.3z"/>
			<path class="st19" d="M14.1,13c1.5-0.9,1.6-1.6,0.2,3.3c-1.7,5-6.4,10.6-7.3,11.1c0.2-0.4,1.7-3,2.7-6.2S11.6,15,14.1,13z"/>
		</g>
		<g>
			
				<radialGradient id="SVGID_18_" cx="327.7295" cy="-504.8845" r="24.817" gradientTransform="matrix(0.2712 -1.940345e-03 -1.940345e-03 -0.2712 -77.8765 -126.3483)" gradientUnits="userSpaceOnUse">
				<stop  offset="5.076140e-03" style="stop-color:#C0D100"/>
				<stop  offset="8.933447e-02" style="stop-color:#B9CD00"/>
				<stop  offset="0.2102" style="stop-color:#A6C116"/>
				<stop  offset="0.3524" style="stop-color:#86B027"/>
				<stop  offset="0.4416" style="stop-color:#6BA32F"/>
				<stop  offset="0.8579" style="stop-color:#2F7A32"/>
				<stop  offset="1" style="stop-color:#315A29"/>
			</radialGradient>
			<path class="st20" d="M13.7,7c0,1.8-1.4,3.3-3.2,3.3S7.2,8.9,7.2,7.1s1.4-3.3,3.2-3.3C12.2,3.7,13.7,5.2,13.7,7z"/>
		</g>
	</g>
</g>
<g id="immo_diffusion_1_">
	<path id="trait_d_x27_union_1_" class="st21" d="M103.2,21.5v2.1h-4.6v-2.1H103.2z"/>
	<path class="st21" d="M53.7,15.8v11h-3.3v-11C50.4,15.8,53.7,15.8,53.7,15.8z"/>
	<path class="st21" d="M60.6,15.8l1.9,6.8l2-6.8h4.6v11h-2.9v-8.9l-2.7,8.9h-2L58.8,18v8.9H56v-11L60.6,15.8L60.6,15.8z"/>
	<path class="st21" d="M76,15.8l1.9,6.8l2-6.8h4.6v11h-2.9v-8.9l-2.7,8.9h-2L74.2,18v8.9h-2.7v-11L76,15.8L76,15.8z"/>
	<path class="st21" d="M97.1,21.3c0,3.6-2.1,5.7-5.5,5.7s-5.5-2-5.5-5.7s2.1-5.7,5.5-5.7C95,15.6,97.1,17.7,97.1,21.3z M89.7,21.3
		c0,2.3,0.8,3.6,2,3.6s2-1.3,2-3.6s-0.8-3.6-2-3.6C90.4,17.7,89.7,19,89.7,21.3z"/>
	<path class="st21" d="M108.5,15.8c4.6,0,6.8,1.7,6.8,5.5c0,3.6-2.4,5.5-6.8,5.5H105v-11C105,15.8,108.5,15.8,108.5,15.8z
		 M108.2,24.7h0.2c2,0,3.4-1.2,3.4-3.4c0-2.3-1.2-3.4-3.3-3.4h-0.2L108.2,24.7L108.2,24.7z"/>
	<path class="st21" d="M120.5,15.8v11h-3.3v-11C117.2,15.8,120.5,15.8,120.5,15.8z"/>
	<path class="st21" d="M130,15.8v2.1h-3.9v2.4h3.8v2.1h-3.8v4.4h-3.3v-11L130,15.8L130,15.8z"/>
	<path class="st21" d="M139,15.8v2.1h-3.9v2.4h3.8v2.1h-3.8v4.4h-3.3v-11L139,15.8L139,15.8z"/>
	<path class="st21" d="M144,15.8v7c0,1.4,0.2,2.1,1.5,2.1s1.5-0.7,1.5-2.1v-7h3.1v6.6c0,3-1.5,4.5-4.6,4.5c-3.2,0-4.7-1.5-4.7-4.5
		v-6.6C140.8,15.8,144,15.8,144,15.8z"/>
	<path class="st21" d="M159.2,18.2c-0.9-0.4-1.8-0.5-2.6-0.5c-1.1,0-1.6,0.4-1.6,1s0.7,1,2,1.5c2.1,0.7,3.1,1.4,3.1,3.1
		c0,2.4-1.6,3.7-4.6,3.7c-1.3,0-2.5-0.2-3.4-0.5l0.2-2.1c1,0.4,2,0.6,2.9,0.6c1.2,0,1.8-0.4,1.8-1.2c0-0.9-0.8-1-2.1-1.5
		c-2.1-0.7-3-1.4-3-3.2c0-2.1,1.7-3.4,4.6-3.4c0.9,0,1.9,0.1,3,0.4L159.2,18.2z"/>
	<path class="st21" d="M165.1,15.8v11h-3.3v-11C161.8,15.8,165.1,15.8,165.1,15.8z"/>
	<path class="st21" d="M177.8,21.3c0,3.6-2.1,5.7-5.5,5.7s-5.5-2-5.5-5.7s2.1-5.7,5.5-5.7C175.7,15.6,177.8,17.7,177.8,21.3z
		 M170.3,21.3c0,2.3,0.8,3.6,2,3.6s2-1.3,2-3.6s-0.8-3.6-2-3.6C171.1,17.7,170.3,19,170.3,21.3z"/>
	<path class="st21" d="M183.4,15.8l3.4,7.6v-7.6h2.7v11h-3.7l-3.4-7.7v7.7h-2.7v-11C179.7,15.8,183.4,15.8,183.4,15.8z"/>
</g>
<g id="Reseau_5_">
	<path class="st17" d="M142.3,12.3V6.8h5.5c0.5,0,0.9,0.1,1.1,0.2c0.2,0.2,0.4,0.4,0.4,0.8v1.3c0,0.4-0.1,0.6-0.4,0.8
		c-0.2,0.2-0.6,0.2-1.1,0.2H147l3,2.1h-2.1l-2.6-2.1h-1.4v2.1L142.3,12.3z M147.2,7.7h-3.4v1.5h3.4c0.2,0,0.4-0.1,0.5-0.1
		s0.1-0.2,0.1-0.4V8.2c0-0.2-0.1-0.2-0.1-0.3C147.6,7.8,147.4,7.7,147.2,7.7z"/>
	<path class="st17" d="M151.8,12.3V7.8h5.7v0.8h-4.4v1h2.6v0.8h-2.6v1.1h4.4v0.9L151.8,12.3L151.8,12.3L151.8,12.3z M153.8,7.2
		l1.2-1.8h1.3l-1.8,1.8H153.8z"/>
	<path class="st17" d="M164.3,8.6h-3.7v0.9h3.4c0.5,0,0.9,0.1,1.1,0.2c0.2,0.1,0.3,0.4,0.3,0.9v0.6c0,0.4-0.1,0.7-0.3,0.9
		c-0.2,0.1-0.5,0.2-1.1,0.2h-3.4c-0.5,0-0.9-0.1-1.1-0.2c-0.2-0.1-0.3-0.4-0.3-0.9v-0.1l1.2-0.2v0.5h3.9v-1h-3.4
		c-0.5,0-0.9-0.1-1.1-0.2c-0.2-0.1-0.3-0.4-0.3-0.9V8.8c0-0.4,0.1-0.7,0.3-0.9c0.2-0.1,0.5-0.2,1.1-0.2h3.1c0.5,0,0.9,0.1,1.1,0.2
		c0.2,0.1,0.3,0.4,0.3,0.7v0.1L164.3,9V8.6L164.3,8.6z"/>
	<path class="st17" d="M167.7,12.3V7.8h5.7v0.8H169v1h2.6v0.8H169v1.1h4.4v0.9L167.7,12.3L167.7,12.3L167.7,12.3z"/>
	<path class="st17" d="M174.5,12.3l3.1-4.4h1.2l3.2,4.4h-1.5l-0.7-1h-3.5l-0.7,1H174.5z M177,10.5h2.4l-1.2-1.9L177,10.5z"/>
	<path class="st17" d="M184.6,7.8v3.7h3.7V7.8h1.3v3.4c0,0.4-0.1,0.7-0.3,0.9c-0.2,0.1-0.5,0.2-1.1,0.2h-3.5c-0.5,0-0.9-0.1-1.1-0.2
		c-0.2-0.1-0.3-0.4-0.3-0.9V7.8H184.6z"/>
</g>
</svg>
