<?xml version="1.0" encoding="utf-8"?>
<!-- Generator: Adobe Illustrator 22.0.1, SVG Export Plug-In . SVG Version: 6.00 Build 0)  -->
<svg version="1.1" id="Calque_1" xmlns="http://www.w3.org/2000/svg" xmlns:xlink="http://www.w3.org/1999/xlink" x="0px" y="0px"
	 viewBox="0 0 1024 1024" style="enable-background:new 0 0 1024 1024;" xml:space="preserve">
<style type="text/css">
	.st0{fill:#3C3B3B;}
</style>
<title></title>
<g id="icomoon-ignore">
</g>
<path class="st0" d="M340.8,582.4l42.1,20.5l-24.1,49.3l-24.1,3.7l-3.7,19.3l-49.3,42.2l-22.9,43.3l16.8,18.1l-27.6-7.2l-9.7-24.1
	l27.7-112L243.2,615l-10.8-43.3l12.9-21.2l-11.8,1.8l-16.8-21.6l-14.5-7.2l-33.7-12.1l-27.7-43.3L124,436.8v-42.2l-27.7-46.9
	l-35-21.7l-21.7,12L0,357.3l25.2-20.5l-15.7-3.6l-5.9-20.5l18-14.5l-18-2.4l3.6-13.2h13.3l-12-18.1l32.5-19.3l59,32.5l21.7-20.5
	l46.9,27.7l90.3-9.7v45.8l-36.1,7.2l-7.2,19.3l34.9,37.3l8.4-1.2l6-46.9l23-1.2l9.6,26.4l12.1-7.2l26.5,59l-37.3,16.8l-28.9,15.7
	l-22.9,31.3v15.7l-8.4,1.2l-6-16.9l-32.5,4.8l-7.2,20.4l8.4,12.1l12-9.7l12.1,1.2l-6,17.2l14.4,1l4.8,18l9.7,3.2l7.2-11.7l48.2,4.8
	l32.4,24.1L340.8,582.4L340.8,582.4z M911.1,571.7l-2.6,20.4l-17.3-6.3l3.2-11l-19-1.6L850.9,596l-26.1,9.5l6.3,35.4l-2.4,7.1
	l9.6,5.5l38.6-9.6l15,8.8l7.1-3.9l4.7,14.3l19.7,5.6l14.2-8.8l7.8-42.5L924.1,596L911.1,571.7L911.1,571.7z M815.4,551.9l20.5,3.9
	l9.5-29.1l-5.6-4.8l-27.6,17.4L815.4,551.9L815.4,551.9z M878.4,543.9l21.3,22.1l12.2,0.8l5.1-4.7l17.4,11l-7.1-15L895,542.4
	L878.4,543.9L878.4,543.9z M917.1,364.9h-5.5l-0.8,28.4l-14.2,30l-18.2,13.4l-0.8,11.8l33.1-19.7l1.6-20.5l11-10.2l-8.7-7l4.7-16.6
	L917.1,364.9L917.1,364.9z M1002.4,651.3l2.4,22l-24.4,22.9l15.8,1.6l14.1-21.4l11-14.9l-7.1-0.8L1002.4,651.3L1002.4,651.3z
	 M474.9,319.2v23l16-7l4.5-7L478.1,295l-10.2,7.1l0.6,8.9l-9.6,11.6l-0.7,12.1h11.5L474.9,319.2L474.9,319.2z M619.2,589.9
	l-0.6,25.6l10.3,4.5l10.2-30.7l-2.6-12.8L619.2,589.9L619.2,589.9z M974,322.2l0.8,18.2l-20.5,25.3l-0.8-28.4l26.8-32.4l-16.5,2.4
	l-21.4,17.3l-26.1-1.6l-19.7,19l14.2,10.2L894.3,398l-14.2,2.4l-8.7,12.6l3.9,16.6l-10.2,5.5l-3.2-15l-8.7-11.9l-11.8,12.6l9.5,26.8
	l-13.4,24.5l-29.2,1.6l-6.3,10.3l13.4,19.7l-14.2,11.9l-14.5-15.1l-0.5,14.2l12.7,14.2l5.5,25.2l15.8,5.6l21.4,8.7l-39.5-7.1
	l-16.6-15.8l-14.9-21.4l20.4,10.3l-9.5-17.3l-1.9-23.6l-9,2.3l-11-23.6l-30.8,21.3v13.5l-11.1,11l-14.1-35.5l-15.7-19l-37.9-7.1
	l-11-9.4l-5.6,3.1l7.8,19l12.6-6.3l16.6,12.6l-48.9,29.2L596,455l-5.3,0.9l25.8,59l25.2-11.9l-7.8,27.7l-25.3,22.8l3.9,34l-14.2,11
	l-26,48.9l-26.1,4.7L523.5,597l5.6-25.2l-14.2-44.3l-48.1,3.1l-26.9-26l4.8-42.6l26.1-31.6l50.5-8.7l3.2,13.4l20.5,13.4l7.8-11
	l31.3,8l8.1-4.9l3.6-11.8l-21.6-3.6l-7-12.1l-5.1-2.6l-4.5,15.3l-9.7-12.2l0.6-10.2l-12.9-10.2l-7.6-3.8l0.7,10.2l16,10.9l-8.3,9.6
	l-11.5-15.3l-8.3-9.6l-19.2,9.6l-13.4,21.1l-20.4-3.2l-1.3-25.5l26.2,1.8l-8.2-13.3l-5.1-10.9l19.8-6.4l10.9-14.6l9-0.7l-1.9-8.3
	l5.7-7.7l4.5,12.8l24.9,0.6l7-17.9l9.7,3.2l-3.2-12.1l14.8-4.7l-4.6-5.5l-13.4,3.8l-4.7-11.5l-0.6-0.1l0.4-0.8l-2-4.8l5.4-3.8
	l4.7-12l-5-0.8l-8.3,10.2l-7,15.3l7.7,8.3l-7.7,20.5l-11.5,4.5l-6.3-20.4l-13.4,7.7l-6.4-3.8l0.6-19.8l11.5-8.9l9.6-23.6l24.3-13.4
	l60.6,11.1c69.9-7.3,196.8-20.8,196.8-20.8l209.4,29.6l7.9,22.1l-28.5,15.8L974,322.2L974,322.2z M614.8,402.2l-33.2-17.3
	l-10.2,17.9l4.5,8.2l19.2-3.2l14.1,3.8L614.8,402.2L614.8,402.2z M649.9,423.9l-3.1-19.8l-6.4-9.6l7.7-3.2v-9.6l-19.8,10.9l7,17.9
	l-3.1,12.1L649.9,423.9L649.9,423.9z M363.8,268.7l-17.8-4.9l-22,23.5l28.3,73.6l13.4,3.3l1.1-23.9l9.1-5.6l0.5-9.1l9.3-17.5
	l-6.5-13.2L363.8,268.7z"/>
</svg>
