<?xml version="1.0" encoding="utf-8"?>
<!-- Generator: Adobe Illustrator 22.0.1, SVG Export Plug-In . SVG Version: 6.00 Build 0)  -->
<svg version="1.1" id="Calque_1" xmlns="http://www.w3.org/2000/svg" xmlns:xlink="http://www.w3.org/1999/xlink" x="0px" y="0px"
	 viewBox="0 0 1024 1024" style="enable-background:new 0 0 1024 1024;" xml:space="preserve">
<style type="text/css">
	.st0{fill:#3C3B3B;}
</style>
<title></title>
<g id="icomoon-ignore">
</g>
<path class="st0" d="M57.2,369.6h37l129,223v-223h40.6V682h-35.4L97.8,456.2V682H57.4V369.6H57.2z"/>
<path class="st0" d="M490.6,369.6V410h-128v95.6h128V546h-128v95.6h128V682H322.2V369.6H490.6z"/>
<path class="st0" d="M716.2,369.6h40.6v220.2c-3.6,25.2-13.8,46.4-31,63.6c-20.8,20.8-45.8,31.2-75.2,31.2s-54.4-10.4-75-31.2
	c-20.8-20.8-31.2-45.8-31.2-75V369.6H585v208.8c0,18,6.4,33.4,19.2,46.2s28.2,19.2,46.4,19.2s33.8-6.4,46.4-19.2
	c12.8-12.8,19.2-28.2,19.2-46.2V369.6L716.2,369.6z"/>
<path class="st0" d="M965.8,369.6V410h-110v95.6h110V546h-110v136h-40.4V369.6H965.8L965.8,369.6z"/>
</svg>
