<?xml version="1.0" encoding="utf-8"?>
<!-- Generator: Adobe Illustrator 22.0.1, SVG Export Plug-In . SVG Version: 6.00 Build 0)  -->
<svg version="1.1" id="Calque_1" xmlns="http://www.w3.org/2000/svg" xmlns:xlink="http://www.w3.org/1999/xlink" x="0px" y="0px"
	 viewBox="0 0 1024 1024" style="enable-background:new 0 0 1024 1024;" xml:space="preserve">
<style type="text/css">
	.st0{fill:#3C3B3B;}
</style>
<title></title>
<g id="icomoon-ignore">
</g>
<path class="st0" d="M1024,313.1c0,51.7-41.9,93.5-93.5,93.5c-5.7,0-11.3-0.6-16.8-1.6l-76.8,274.1v98.5H187.1V675.4L111,405
	c-5.7,1.1-11.5,1.7-17.4,1.7C41.9,406.6,0,364.8,0,313.1c0-51.7,41.9-93.5,93.5-93.5c51.7,0,93.5,41.9,93.5,93.5
	c0,12.7-2.6,24.8-7.2,35.9c93.5,31.5,237.8,57.2,302.7-51.5c-37.2-12.3-64.1-47.4-64.1-88.7c0-51.7,41.9-93.5,93.5-93.5
	s93.5,41.9,93.5,93.5c0,41.3-26.8,76.4-64,88.7c37.9,70,122.4,143.2,306.5,59.8c-7-13.2-11.1-28.2-11.1-44.1
	c0-51.7,41.9-93.5,93.5-93.5S1024,261.4,1024,313.1L1024,313.1z M187.1,908.8h649.9v-88.6H187.1L187.1,908.8L187.1,908.8z"/>
</svg>
