<?xml version="1.0" encoding="utf-8"?>
<!-- Generator: Adobe Illustrator 22.0.1, SVG Export Plug-In . SVG Version: 6.00 Build 0)  -->
<svg version="1.1" id="Calque_1" xmlns="http://www.w3.org/2000/svg" xmlns:xlink="http://www.w3.org/1999/xlink" x="0px" y="0px"
	 viewBox="0 0 1024 1024" style="enable-background:new 0 0 1024 1024;" xml:space="preserve">
<style type="text/css">
	.st0{fill:#3C3B3B;}
</style>
<title></title>
<g id="icomoon-ignore">
</g>
<path class="st0" d="M382.2,771.8c-10.6,0-19.8-7.6-21.8-18c-23.4-127-44.8-204.6-91.4-251s-124-68-251-91.4c-10.4-2-18-11-18-21.8
	c0-10.6,7.6-19.8,18-21.8c127-23.4,204.6-44.8,251-91.4c46.4-46.4,68-124,91.4-251c2-10.4,11-18,21.8-18S402,15,404,25.4
	c23.4,127,44.8,204.6,91.4,251c46.4,46.4,124,68,251,91.4c10.4,2,18,11,18,21.8c0,10.6-7.6,19.8-18,21.8
	c-127,23.4-204.6,44.8-251,91.4c-46.4,46.4-68,124-91.4,251C402,764.2,392.8,771.8,382.2,771.8L382.2,771.8z M773,1016.2
	c-10.6,0-19.8-7.6-21.8-18c-14.6-79.2-27.8-127.4-55.8-155.4S619.2,801.6,540,787c-10.4-2-18-11-18-21.8c0-10.6,7.6-19.8,18-21.8
	c79.2-14.6,127.4-27.8,155.4-55.8s41.2-76.2,55.8-155.4c2-10.4,11-18,21.8-18c10.6,0,19.8,7.6,21.8,18
	c14.6,79.2,27.8,127.4,55.8,155.4s76.2,41.2,155.4,55.8c10.4,2,18,11,18,21.8c0,10.6-7.6,19.8-18,21.8
	c-79.2,14.6-127.4,27.8-155.4,55.8s-41.2,76.2-55.8,155.4C792.8,1008.6,783.6,1016.2,773,1016.2L773,1016.2z"/>
</svg>
