<?xml version="1.0" encoding="utf-8"?>
<!-- Generator: Adobe Illustrator 22.0.1, SVG Export Plug-In . SVG Version: 6.00 Build 0)  -->
<svg version="1.1" id="Calque_1" xmlns="http://www.w3.org/2000/svg" xmlns:xlink="http://www.w3.org/1999/xlink" x="0px" y="0px"
	 viewBox="0 0 1024 1024" style="enable-background:new 0 0 1024 1024;" xml:space="preserve">
<style type="text/css">
	.st0{fill:#3C3B3B;}
</style>
<title></title>
<g id="icomoon-ignore">
</g>
<path class="st0" d="M706.6,126.3c0,61.3-49.7,110.9-110.9,110.9s-110.9-49.7-110.9-110.9c0-61.3,49.7-110.9,110.9-110.9
	S706.6,65,706.6,126.3z"/>
<path class="st0" d="M873.8,397.7c-99-10.2-196.3-117.8-220.2-133.1c-15.4-10.2-32.4-17.1-49.5-20.5c0,0-11.9-1.7-23.9-1.7
	c-11.9,1.7-30.7,1.7-56.3,22.2c-1.7,1.7-15.4,13.7-20.5,18.8c-32.4,34.1-124.6,134.8-169,249.2c-6.8,15.4-1.7,34.1,8.5,46.1
	l-52.9,95.6L215,631.5c-8.5-5.1-20.5-1.7-25.6,6.8L47.8,889.2c-5.1,8.5-1.7,20.5,6.8,25.6l56.3,32.4c-8.5,15.4-6.8,37.5,6.8,51.2
	c17.1,17.1,44.4,17.1,59.7,0c15.4-15.4,17.1-39.3,3.4-56.3l76.8-136.5l54.6-97.3l66.6-116.1c15.4-1.7,27.3-11.9,34.1-27.3
	c18.8-47.8,49.5-95.6,78.5-133.1l13.7,155.3c1.7,18.8,8.5,34.1,20.5,46.1c-34.1,63.1-129.7,237.2-162.1,295.3
	c-15.4,25.6-6.8,59.7,20.5,75.1c10.2,5.1,20.5,8.5,30.7,6.8c17.1-1.7,34.1-10.2,44.4-27.3c32.4-54.6,114.3-221.9,150.2-283.3
	c29,47.8,78.5,136.5,141.7,278.2c8.5,20.5,29,32.4,51.2,32.4c6.8,0,15.4-1.7,22.2-5.1c27.3-11.9,41-44.4,27.3-73.4
	c-73.4-167.3-128-259.4-158.7-308.9c11.9-15.4,18.8-34.1,17.1-54.6l-13.7-146.8c37.5,29,85.3,54.6,169,63.1c1.7,0,3.4,0,5.1,0
	c22.2,0,41-17.1,42.7-39.3C914.8,421.5,897.7,401.1,873.8,397.7L873.8,397.7z M146.8,984.7c-8.5,0-15.4-6.8-15.4-15.4
	s6.8-15.4,15.4-15.4s15.4,6.8,15.4,15.4S155.3,984.7,146.8,984.7z"/>
</svg>
