<?xml version="1.0" encoding="utf-8"?>
<!-- Generator: Adobe Illustrator 22.0.1, SVG Export Plug-In . SVG Version: 6.00 Build 0)  -->
<svg version="1.1" id="Calque_1" xmlns="http://www.w3.org/2000/svg" xmlns:xlink="http://www.w3.org/1999/xlink" x="0px" y="0px"
	 viewBox="0 0 1024 1024" style="enable-background:new 0 0 1024 1024;" xml:space="preserve">
<style type="text/css">
	.st0{fill:#3C3B3B;}
</style>
<title></title>
<g id="icomoon-ignore">
</g>
<path class="st0" d="M984.8,709.6c-5.4-5.6-12-10.4-19.4-14.2c-37.4-19.2-76.2-35.2-115.2-50.2c-3-1.2-6.4-3.4-7.6-6
	c-3.2-7-5.4-14.6-7.8-22c-1.4-4.8-2.6-9.2-7.8-11.6c-1.4-0.6-2.6-3.4-2.6-5.2c0.2-17.2-3.6-35.2,9-50.2c0.4-0.4,0.6-1.2,0.8-1.6
	c7-15,8-32.2,17.8-46.4c0.2-0.4,0.2-0.8,0.4-1.2c1.2-10.8,2.2-21.4,3.2-32c0-1.2-1-3.6-2.2-4c-5.2-1.8-5-6.2-5-10.4
	c0-20.8,0-24,0-44.8c0-12.2-3.6-23-12.8-31.2c-10.4-9.4-21.2-18.4-32-27.6c-5.2-4.4-5.6-7.8-0.8-12.6c2.2-2.2,4.8-3.6,7.4-5.4
	c-0.6-0.8-1-1.6-1.6-2.4c-3.2,0-6.4-0.4-9.6,0c-12,2-23.8,3.6-35.4,6.4c-22.2,5.2-44,12.2-62,27.2c-12.4,10.2-22.2,22-23.4,38.8
	c-0.6,8.8-0.6,17.6-0.6,26.4c-0.2,14.4,0.2,10.8-0.2,25.2c0,2.4-1.4,6.2-3,6.8c-5.8,1.8-6,5.6-5.2,10.4c0.6,3.4,0.2,6.8,0.8,10
	c2,9,4.2,18,6.8,26.8c2,6.6,5.6,12.8,6.8,19.4c2,13.4,7,25,16,35c1.4,1.6,2.6,4.4,2.4,6.6c-0.8,10.2-1.8,20.6-3.2,30.8
	c-0.2,2-2.4,5-4,5.4c-6.8,1.4-7.8,6.6-9.6,12c-2.2,7-4.4,14-7.2,20.8c-0.8,2.2-3,4.4-5,5.2c-12.2,5.2-24.6,10.2-36.8,15.2
	c-13,5.4-26.2,10.8-38.8,16.8c-13.2,6.2-25.8,13.4-38.6,20.2c-7.6,4-14.6,8.6-20.6,14l-17.8,76c64.2,0,446.6,0,482.6,0L984.8,709.6
	L984.8,709.6z M414.6,561.6c-7.6,0-13.6,6-13.6,13.6v186.2h-96.6v-76c0-7.2-6-13.4-13.2-13.4h-69.8c-7.6,0-13.8,6.2-13.8,13.4v76
	h-96.4v-180c0-7.2-6-13.2-13.6-13.2c-7.2,0-13.2,6-13.2,13.2V775c0,7.2,6,13.2,13.2,13.2h123.8c7.2,0,13.2-6,13.2-13.2v-76h43.2v76
	c0,7.2,6,13.2,13.6,13.2h123.4c7.2,0,13.2-6,13.2-13.2V575.2C427.8,567.4,421.8,561.6,414.6,561.6L414.6,561.6L414.6,561.6z
	 M488.8,572.2l-107.4-108v-73.6c0-7.6-6.2-13.6-13.8-13.6c-7.2,0-13.2,6-13.2,13.6v46.6L265.6,348c-2.8-2.8-6-4.2-9.2-4.2
	c-3.8,0-7,1.6-9.6,4.2L24.2,570.8c-5.4,5.4-5.6,14,0,18.8c5,5.8,13.4,5.4,18.8,0l213.4-213l213,215c2.2,2.2,5.4,3.4,9.6,3.4
	c3.8,0,7-1.2,9.6-3.4C493.8,586.6,494,577.6,488.8,572.2L488.8,572.2L488.8,572.2z M719.6,186.6c-7-3.2-15.4-0.2-18.4,6.8L685.6,227
	c-26.8-57.2-84.6-95.2-149.4-95.6C460.4,131,394,182,374.6,255.4c-2,7.4,2.4,15,10,17l0.8,0.2c7.2,1.4,14.4-3,16.2-10
	C417.8,201.4,473,159,536,159.2c54.4,0.2,102.6,32.4,124.6,80.4l-37.4-17.4c-7-3.2-15.4-0.2-18.6,6.8s-0.2,15.2,6.8,18.4l66,30.6
	c10.6,4.2,17.4-3.2,18.6-6.8l30.6-66.2C729.6,198.2,726.6,189.8,719.6,186.6L719.6,186.6L719.6,186.6z"/>
</svg>
