<svg id="layer1" xmlns="http://www.w3.org/2000/svg" xmlns:xlink="http://www.w3.org/1999/xlink" viewBox="0 0 93.81 74.47"><defs><style>.cls-1{fill:url(#Áåçûìÿííûé_ãðàäèåíò_67);}</style><linearGradient id="Áåçûìÿííûé_ãðàäèåíò_67" y1="37.24" x2="93.81" y2="37.24" gradientUnits="userSpaceOnUse"><stop offset="0.01" stop-color="#8684f4"/><stop offset="1" stop-color="#839af2"/></linearGradient></defs><path class="cls-1" d="M83.76,74.47H10.05c-5.55,0-10-3.57-10-8V8C0,3.57,4.5,0,10.05,0H83.76c5.55,0,10,3.57,10,8V66.49C93.81,70.9,89.31,74.47,83.76,74.47ZM42.38,58.17,73,27.58a2.66,2.66,0,0,0,0-3.76l-3.76-3.76a2.66,2.66,0,0,0-3.76,0l-25,25L28.86,33.36a2.67,2.67,0,0,0-3.77,0l-3.76,3.76a2.66,2.66,0,0,0,0,3.76L38.62,58.17a2.66,2.66,0,0,0,3.76,0Z"/></svg>