<svg id="layer1" xmlns="http://www.w3.org/2000/svg" xmlns:xlink="http://www.w3.org/1999/xlink" viewBox="0 0 93.81 75.32"><defs><style>.cls-1{fill:url(#Áåçûìÿííûé_ãðàäèåíò_67);}</style><linearGradient id="Áåçûìÿííûé_ãðàäèåíò_67" y1="38.28" x2="93.81" y2="38.28" gradientUnits="userSpaceOnUse"><stop offset="0.01" stop-color="#8684f4"/><stop offset="1" stop-color="#839af2"/></linearGradient></defs><path class="cls-1" d="M86,1.25H7.82A7.87,7.87,0,0,0,0,9.18v58.2a7.88,7.88,0,0,0,7.82,7.94H86a7.88,7.88,0,0,0,7.82-7.94V9.18A7.87,7.87,0,0,0,86,1.25ZM57.46,59.94a3,3,0,0,1-2.93,3H42.83a3,3,0,0,1-2.93-3V48.06a3,3,0,0,1,2.93-3h11.7a3,3,0,0,1,2.93,3Zm0-32.67H37v4.41l5.88,10.44h0a5.82,5.82,0,0,0-5,3L31.1,33.21H22.35a3,3,0,0,1-2.93-3V18.36a3,3,0,0,1,2.93-3h11.7a3,3,0,0,1,2.93,3v3H57.46Zm20.48,3a3,3,0,0,1-2.93,3H63.31a3,3,0,0,1-2.93-3V18.36a3,3,0,0,1,2.93-3H75a3,3,0,0,1,2.93,3Z"/></svg>