<svg id="layer1" xmlns="http://www.w3.org/2000/svg" xmlns:xlink="http://www.w3.org/1999/xlink" viewBox="0 0 93.81 74.47"><defs><style>.cls-1{fill:url(#Áåçûìÿííûé_ãðàäèåíò_67);}</style><linearGradient id="Áåçûìÿííûé_ãðàäèåíò_67" y1="37.24" x2="93.81" y2="37.24" gradientUnits="userSpaceOnUse"><stop offset="0.01" stop-color="#8684f4"/><stop offset="1" stop-color="#839af2"/></linearGradient></defs><path class="cls-1" d="M83.76,0H10.05C4.5,0,0,3.57,0,8V66.49c0,4.41,4.5,8,10.05,8H83.76c5.55,0,10-3.57,10-8V8C93.81,3.57,89.31,0,83.76,0ZM47.4,62c-10.13,0-18.33-3.44-18.33-7.69l1.35-13.63L44.26,46a8.64,8.64,0,0,0,6.27,0l13.84-5.36,1.35,13.63C65.72,58.51,57.52,62,47.4,62ZM76.25,32,49.63,42.31a6.13,6.13,0,0,1-4.47,0L26.49,35.09a6.16,6.16,0,0,0-2,4.41,4.25,4.25,0,0,1,.17,6.31l2.44,13.8A1.86,1.86,0,0,1,25.64,62H20.28a1.86,1.86,0,0,1-1.49-2.34l2.44-13.8a4.08,4.08,0,0,1-1.32-3.08,4,4,0,0,1,1.56-3.29,11,11,0,0,1,1.71-5.63L18.54,32c-2.25-.87-2.25-4.61,0-5.48L45.16,16.25a6.16,6.16,0,0,1,4.47,0L76.25,26.54C78.5,27.41,78.5,31.15,76.25,32Z"/></svg>