<svg id="layer1" xmlns="http://www.w3.org/2000/svg" xmlns:xlink="http://www.w3.org/1999/xlink" viewBox="0 0 93.81 75.32"><defs><style>.cls-1{fill:url(#Áåçûìÿííûé_ãðàäèåíò_67);}</style><linearGradient id="Áåçûìÿííûé_ãðàäèåíò_67" y1="37.78" x2="93.81" y2="37.78" gradientUnits="userSpaceOnUse"><stop offset="0.01" stop-color="#8684f4"/><stop offset="1" stop-color="#839af2"/></linearGradient></defs><path class="cls-1" d="M86,.25H7.82A7.93,7.93,0,0,0,0,8.29v59a7.94,7.94,0,0,0,7.82,8H86a7.94,7.94,0,0,0,7.82-8v-59A7.93,7.93,0,0,0,86,.25ZM28.66,16.33a10.73,10.73,0,0,1,0,21.45A10.59,10.59,0,0,1,18.24,27.06,10.59,10.59,0,0,1,28.66,16.33ZM46.91,56a3.45,3.45,0,0,1-3.65,3.22H14.07A3.45,3.45,0,0,1,10.42,56V52.8c0-5.33,4.91-9.66,11-9.66h.81a16.36,16.36,0,0,0,13,0H36c6,0,10.95,4.33,10.95,9.66Zm36.48-8.84a1.33,1.33,0,0,1-1.31,1.34H58.63a1.33,1.33,0,0,1-1.3-1.34V44.48a1.33,1.33,0,0,1,1.3-1.34H82.08a1.33,1.33,0,0,1,1.31,1.34Zm0-10.73a1.33,1.33,0,0,1-1.31,1.34H58.63a1.33,1.33,0,0,1-1.3-1.34V33.76a1.33,1.33,0,0,1,1.3-1.34H82.08a1.33,1.33,0,0,1,1.31,1.34Zm0-10.72a1.33,1.33,0,0,1-1.31,1.34H58.63a1.33,1.33,0,0,1-1.3-1.34V23a1.33,1.33,0,0,1,1.3-1.34H82.08A1.33,1.33,0,0,1,83.39,23Z"/></svg>